# xmcd
#
# Track frame offsets: 
#        150
#        19553
#        40003
#        59460
#        79160
#
# Disc length: 1326 seconds
#
# Revision: 1
# Processed by: cddbd v1.5.2PL0 Copyright (c) Steve Scherf et al.
# Submitted via: ExactAudioCopy v1.1
#
DISCID=32052c05
DTITLE=II Close - So What! Remixes [CDS)
DYEAR=1993
DGENRE=New Jack Swing
TTITLE0=So What! (Street Element-Radio)
TTITLE1=So What! (Bass Appella-Radio
TTITLE2=So What! (Dirty Street Hype-Radio)
TTITLE3=So What! (Smoothed Out-Radio)
TTITLE4=So What! (Hip Hype-Radio)
EXTD=
EXTT0=
EXTT1=
EXTT2=
EXTT3=
EXTT4=
PLAYORDER=
